<svg version="1.0" xmlns="http://www.w3.org/2000/svg" width="800.000000" height="800.000000" viewBox="0 0 800.000000 800.000000" preserveAspectRatio="xMidYMid meet">
  <metadata>
    <rdf:RDF xmlns:rdf="http://www.w3.org/1999/02/22-rdf-syntax-ns#" xmlns:rdfs="http://www.w3.org/2000/01/rdf-schema#" xmlns:dc="http://purl.org/dc/elements/1.1/">
      <rdf:Description dc:format="image/svg+xml" dc:Label="1" dc:ContentProducer="001191330110MACRLGPT8B00000" dc:ProduceID="393648222" dc:ReservedCode1="GWLk1BxxEMVb5stKqwDJ0Nh93i9vSu0q/czWFA+grRI=" dc:ContentPropagator="001191330110MACRLGPT8B00000" dc:PropagateID="393648222" dc:ReservedCode2="GWLk1BxxEMVb5stKqwDJ0Nh93i9vSu0q/czWFA+grRI="/>
    </rdf:RDF>
  </metadata>
  <g transform="translate(0.000000,800.000000) scale(0.100000,-0.100000)" fill="#000000" stroke="none">
    <path d="M5416 6297 c-31 -106 -38 -162 -33 -247 3 -47 9 -96 14 -109 8 -20 12 -11 31 63 12 47 28 100 35 118 l14 33 34 -48 c46 -64 135 -211 162 -269 12 -26 24 -47 27 -47 3 0 48 56 100 125 52 69 101 130 107 135 34 30 -62 -196 -119 -278 -16 -24 -27 -43 -25 -43 16 0 336 42 354 46 13 4 23 2 23 -3 0 -19 -64 -108 -117 -165 -31 -32 -54 -60 -52 -62 9 -9 85 32 146 77 63 47 133 127 179 205 14 24 23 46 20 50 -4 3 -83 -2 -177 -12 -94 -10 -172 -16 -174 -14 -1 2 11 36 27 76 16 41 38 108 49 150 21 81 37 242 25 242 -4 0 -40 -23 -80 -50 -69 -48 -185 -159 -252 -243 l-31 -38 -41 69 c-70 117 -203 292 -223 292 -4 0 -14 -24 -23 -53z"/>
    <path d="M4812 6033 c-7 -3 -19 -18 -27 -33 -13 -25 -13 -51 2 -215 16 -183 16 -187 -4 -213 -49 -67 -139 -79 -189 -25 -33 36 -31 88 6 161 17 33 30 67 30 75 0 107 -196 136 -296 45 l-22 -20 -11 35 c-21 62 -87 109 -155 109 -52 0 -63 -2 -666 -118 -647 -124 -1053 -202 -1115 -215 -69 -13 -110 -41 -135 -88 -44 -87 -25 -146 131 -403 50 -82 89 -151 87 -152 -1 -1 -22 -8 -45 -14 -93 -27 -107 -105 -35 -190 48 -58 56 -81 43 -130 -22 -79 -107 -114 -181 -74 -38 21 -51 47 -95 194 -22 74 -30 90 -55 103 -40 21 -54 19 -89 -11 -63 -53 -119 -306 -108 -488 3 -56 13 -123 21 -151 20 -64 21 -59 -19 -74 -43 -15 -102 -83 -115 -132 -7 -26 -6 -135 5 -356 23 -494 33 -734 45 -1053 6 -162 14 -348 19 -412 12 -178 13 -180 326 -352 83 -45 177 -97 210 -116 155 -86 166 -90 222 -90 30 0 220 32 421 70 449 87 567 109 1337 255 336 63 702 133 815 155 113 21 374 71 580 110 447 84 448 84 493 121 69 57 77 89 77 320 0 112 -7 559 -15 994 -15 719 -18 793 -34 830 -37 82 -117 134 -207 135 -27 0 -113 -11 -190 -25 -76 -14 -143 -25 -148 -25 -5 0 -6 35 -2 78 4 43 2 128 -4 188 -21 205 -57 313 -115 344 -14 7 -35 29 -46 47 -28 44 -47 53 -117 53 -74 0 -138 -19 -197 -59 -25 -17 -49 -31 -52 -31 -4 0 -25 21 -47 46 -38 42 -43 45 -69 35 -26 -10 -27 -10 -20 17 10 35 10 578 0 614 -10 38 -63 95 -108 119 -36 18 -107 24 -137 12z m125 -68 c70 -41 72 -50 79 -341 5 -215 4 -266 -8 -299 -16 -43 -166 -415 -301 -745 l-84 -205 -59 -12 c-32 -6 -60 -11 -61 -9 -2 2 162 422 191 488 28 66 17 109 -39 145 -50 33 -212 93 -251 93 -45 0 -79 -33 -94 -91 -11 -42 -230 -702 -234 -706 -1 -2 -35 -9 -75 -17 -72 -13 -73 -13 -68 8 3 11 69 194 147 406 79 212 147 401 153 421 16 55 4 82 -47 106 -38 19 -46 28 -52 59 -8 42 8 165 30 240 31 101 157 263 238 305 51 26 131 26 158 -1 21 -21 22 -19 -23 -110 -30 -61 -32 -81 -16 -131 43 -127 219 -148 300 -36 34 47 35 62 17 278 -6 80 -9 153 -5 162 9 25 53 21 104 -8z m-718 -93 c35 -35 49 -98 27 -121 -15 -14 -16 -14 -16 1 0 8 -10 28 -21 43 -18 22 -28 26 -58 23 -20 -3 -227 -43 -461 -91 -234 -47 -621 -124 -860 -172 -239 -47 -443 -88 -452 -91 -27 -8 -41 -64 -26 -105 27 -74 143 -261 167 -270 28 -11 49 -7 326 57 105 25 368 85 585 135 217 49 445 101 505 114 61 14 118 27 128 29 15 4 18 -1 15 -27 l-3 -32 -190 -43 c-104 -24 -428 -99 -720 -167 -291 -68 -552 -129 -580 -135 -27 -6 -57 -13 -67 -16 -12 -4 -41 37 -122 169 -58 95 -113 193 -121 218 -21 59 -12 111 25 142 31 27 -43 11 1025 216 369 71 693 133 720 139 28 5 72 10 98 11 41 1 53 -4 76 -27z m-136 -608 c5 -50 32 -85 78 -104 16 -7 29 -16 29 -21 0 -9 -209 -581 -214 -587 -7 -7 -704 -122 -741 -122 -19 0 -53 34 -157 158 -212 252 -283 314 -403 358 -36 14 -54 24 -45 28 20 8 490 118 965 227 215 49 406 93 425 98 56 14 57 13 63 -35z m1447 -107 c17 -48 33 -73 50 -82 25 -14 24 -16 -18 -27 -21 -6 -19 -151 2 -183 22 -33 21 -35 -15 -35 -25 0 -29 -3 -20 -13 6 -8 8 -17 4 -20 -3 -4 2 -9 11 -13 23 -9 20 -29 -6 -51 -21 -17 -23 -25 -20 -106 2 -64 -1 -89 -10 -92 -33 -13 -143 -31 -146 -25 -2 5 6 122 18 261 29 369 26 437 -21 440 -8 0 -5 4 6 9 11 5 47 8 80 7 l60 -2 25 -68z m-448 46 c-16 -30 -21 -88 -32 -363 -6 -146 -13 -293 -16 -327 l-6 -62 -36 -7 c-20 -3 -45 -8 -55 -11 -16 -4 -17 3 -12 104 3 59 8 125 11 146 3 27 1 37 -10 37 -15 0 -16 50 -1 83 6 14 4 18 -10 15 -13 -2 -19 5 -22 25 -3 25 -1 27 29 27 l33 1 -22 18 c-13 11 -23 22 -23 25 0 26 97 260 115 280 28 31 71 37 57 9z m108 -189 c0 -17 -22 -14 -28 4 -2 7 3 12 12 12 9 0 16 -7 16 -16z m83 -60 c9 -10 -4 -34 -18 -34 -17 0 -28 17 -20 30 7 11 28 13 38 4z m-2627 -54 c74 -25 142 -72 216 -147 92 -94 507 -587 500 -595 -4 -3 -32 -9 -62 -13 l-55 -6 -55 67 c-30 37 -86 106 -124 153 -98 123 -123 133 -193 81 -39 -29 -125 -135 -152 -188 -7 -13 -13 -44 -13 -69 0 -35 7 -53 31 -83 17 -22 31 -41 31 -43 0 -3 -19 -7 -42 -11 -24 -4 -53 -9 -65 -12 -23 -6 -24 -3 -26 137 -1 61 2 71 51 159 55 98 60 125 27 125 -14 0 -31 -21 -60 -75 -22 -41 -50 -91 -63 -110 -24 -39 -26 -60 -12 -169 6 -41 8 -76 6 -78 -2 -2 -34 -9 -72 -17 -87 -17 -141 -39 -179 -75 -41 -39 -91 -46 -148 -22 -214 92 -309 439 -214 781 31 111 43 132 70 128 19 -3 27 -20 55 -113 38 -128 52 -152 113 -183 91 -48 201 -15 240 72 34 75 24 139 -34 203 -78 86 -51 121 94 122 51 1 95 -6 135 -19z m2524 5 c0 -8 -7 -15 -15 -15 -16 0 -20 12 -8 23 11 12 23 8 23 -8z m-722 -63 c4 -26 -22 -40 -43 -22 -11 9 -12 17 -4 32 13 25 43 19 47 -10z m72 -87 c0 -18 -5 -25 -20 -25 -20 0 -28 28 -13 43 15 16 33 6 33 -18z m-72 -73 c4 -28 -24 -40 -45 -19 -14 13 -14 19 -3 32 18 22 44 15 48 -13z m358 -37 c-3 -9 -11 -13 -16 -10 -8 5 -7 11 1 21 14 18 24 11 15 -11z m0 -79 c1 0 4 -36 7 -78 7 -86 12 -81 -77 -94 -40 -5 -48 -4 -44 7 3 8 21 51 39 97 29 73 35 82 53 76 12 -4 21 -7 22 -8z m1306 -6 c21 -6 51 -22 67 -36 59 -49 59 -53 71 -714 5 -333 13 -760 17 -950 3 -190 3 -362 -1 -383 -8 -42 -57 -104 -93 -118 -21 -8 -311 -64 -1873 -360 -261 -50 -601 -115 -755 -144 -787 -152 -928 -176 -969 -170 -55 10 -93 33 -118 74 -19 31 -23 68 -44 435 -13 220 -32 556 -44 746 -49 822 -50 849 -39 877 30 79 96 125 194 137 28 3 181 28 340 56 333 58 823 143 971 167 l101 16 37 -28 c20 -15 42 -37 47 -48 6 -10 28 -247 50 -525 21 -279 41 -518 44 -532 4 -14 18 -37 32 -52 52 -55 56 -54 438 22 369 73 383 78 419 140 22 37 24 -30 -24 730 -22 361 -28 388 -98 435 l-34 23 29 6 c59 12 495 88 726 126 133 22 287 49 342 59 122 23 121 23 167 11z m-2201 -194 l-46 -124 -185 -32 c-267 -48 -238 -53 -337 65 -69 81 -81 101 -66 104 46 9 650 110 664 110 14 1 8 -22 -30 -123z m927 -134 c4 -27 26 -23 -373 -77 -199 -27 -333 -41 -338 -36 -15 15 0 40 25 45 13 3 129 19 258 37 129 17 273 37 320 44 101 15 104 14 108 -13z m-36 -213 c9 -42 35 -393 30 -408 -2 -6 -12 -11 -23 -11 -24 0 -24 1 -43 245 -12 156 -13 201 -3 207 20 13 31 3 39 -33z m-235 -21 c10 -13 50 -415 42 -423 -2 -2 -63 -9 -134 -15 -72 -7 -133 -15 -136 -19 -4 -3 -1 -40 5 -81 10 -65 14 -75 31 -73 11 2 115 17 230 33 273 40 255 39 255 10 0 -11 -2 -20 -4 -20 -3 0 -87 -13 -188 -29 -101 -16 -206 -32 -233 -36 -74 -9 -74 -9 -61 -97 6 -42 14 -79 17 -82 3 -3 95 12 204 34 109 22 202 40 207 40 4 0 8 -11 8 -24 0 -23 -7 -25 -218 -67 -120 -23 -225 -40 -234 -37 -11 5 -19 31 -28 95 -16 123 -16 121 -53 119 -26 -1 -32 3 -32 19 0 14 8 21 28 23 31 4 31 3 15 123 -6 49 -8 92 -4 96 4 5 67 12 139 18 l132 10 -3 75 c-2 41 -8 79 -12 84 -5 5 -73 -1 -157 -13 -81 -12 -161 -21 -176 -21 -26 0 -47 23 -33 37 3 4 86 18 184 32 l177 26 -3 55 c-2 30 -5 56 -7 59 -3 2 -74 -6 -159 -19 -85 -12 -159 -19 -165 -15 -9 5 -16 34 -8 36 9 3 335 57 348 58 9 1 21 -5 26 -11z m-2486 -297 c171 -59 199 -71 199 -92 0 -10 -3 -19 -7 -19 -12 1 -284 98 -290 104 -5 5 3 36 10 36 2 0 41 -13 88 -29z m-142 -1244 c16 -16 13 -27 -4 -21 -22 9 -3 -37 41 -99 l36 -50 -26 5 c-14 3 -26 3 -26 0 0 -3 14 -27 30 -54 33 -54 37 -67 15 -48 -9 7 -18 10 -22 7 -7 -8 74 -138 127 -206 l40 -50 -38 18 c-146 67 -198 103 -211 145 -5 17 -12 135 -16 261 l-5 230 24 -64 c13 -35 29 -68 35 -74z"/>
    <path d="M4218 5518 c-48 -101 -71 -226 -31 -172 9 12 16 15 21 8 4 -6 24 -14 45 -18 l38 -7 -17 26 c-12 19 -19 56 -23 124 l-6 96 -27 -57z"/>
    <path d="M4485 5205 c-10 -36 -16 -67 -14 -68 2 -2 49 -23 104 -46 55 -24 114 -51 132 -61 59 -34 23 4 -55 59 -42 29 -67 51 -54 48 31 -7 28 -1 -20 33 -25 19 -35 30 -24 30 14 0 13 6 -10 35 -14 19 -30 35 -34 35 -4 0 -16 -29 -25 -65z"/>
    <path d="M1980 4364 c0 -17 6 -52 14 -79 17 -55 78 -196 83 -191 2 1 -6 32 -17 67 -11 35 -28 91 -36 124 -9 33 -22 71 -29 85 l-14 25 -1 -31z"/>
    <path d="M5885 4239 c-27 -6 -219 -39 -425 -75 -206 -35 -385 -69 -397 -74 -23 -10 -31 -34 -14 -45 8 -5 157 20 786 131 83 15 153 31 157 37 12 19 -4 37 -31 36 -14 -1 -48 -5 -76 -10z"/>
    <path d="M5992 4008 c-17 -17 -15 -48 4 -55 20 -7 33 12 27 38 -7 25 -17 31 -31 17z"/>
    <path d="M3740 3864 c-118 -19 -393 -61 -610 -95 -217 -34 -401 -67 -408 -74 -11 -10 -11 -15 2 -27 13 -14 26 -13 118 2 57 10 330 53 608 95 308 48 511 83 520 92 13 11 13 15 0 27 -13 11 -48 8 -230 -20z"/>
    <path d="M5854 3855 c-4 -9 -2 -21 4 -27 15 -15 44 -1 40 19 -4 23 -36 29 -44 8z"/>
    <path d="M5996 3785 c-9 -25 -8 -32 10 -49 23 -24 56 -3 52 32 -2 21 -9 28 -29 30 -17 2 -29 -3 -33 -13z"/>
    <path d="M3218 2979 c-21 -12 -24 -59 -6 -77 21 -21 66 -14 84 13 15 23 15 27 0 50 -17 26 -48 32 -78 14z"/>
    <path d="M3357 2858 c-7 -20 12 -48 33 -48 19 0 36 32 25 50 -9 14 -52 12 -58 -2z"/>
    <path d="M3180 2795 c0 -8 7 -15 15 -15 8 0 15 7 15 15 0 8 -7 15 -15 15 -8 0 -15 -7 -15 -15z"/>
    <path d="M5660 2745 c-58 -12 -613 -125 -1235 -249 -784 -158 -1138 -233 -1155 -245 -37 -26 -49 -74 -39 -149 13 -95 46 -132 118 -132 24 0 685 131 1986 395 259 52 483 100 498 106 52 22 67 53 67 140 0 90 -12 125 -51 145 -36 18 -61 17 -189 -11z m158 -54 c20 -12 27 -112 10 -134 -11 -15 -77 -31 -289 -73 -267 -53 -657 -124 -675 -124 -18 1 130 61 209 84 45 14 170 48 277 77 199 52 243 67 205 70 -11 0 13 7 54 15 69 14 131 37 131 50 0 3 -15 3 -32 0 -25 -5 -19 0 22 18 62 27 70 29 88 17z m-2348 -490 c0 -4 -15 -13 -32 -19 -64 -20 146 -14 261 8 87 17 139 20 291 18 l185 -3 -112 -27 c-196 -48 -715 -149 -734 -143 -11 4 -20 19 -24 41 -3 19 -7 49 -10 68 -8 49 20 66 107 66 38 0 68 -4 68 -9z"/>
  </g>
</svg>